PathFileType	4	(X/Y/Z)	C:\Users\WrightLab\Desktop\Jo\P3_21.trc
DataRate	CameraRate	NumFrames	NumMarkers	Units	OrigDataRate	OrigDataStartFrame	OrigNumFrames
100.00	100.00	       13	19	mm	100.00	231	       614
Frame#	Time	Headset_Front			Headset_Back			Headset_Left			Headset_Right			Left_Shoulder			Right_Shoulder			Sternum			C7			Left Elbow			Right Elbow			Left Wrist			Right Wrist			Left ASIS			Right ASIS			S2			Left Knee			Right Knee			Left Ankle			Right Ankle			
		X1	Y1	Z1	X2	Y2	Z2	X3	Y3	Z3	X4	Y4	Z4	X5	Y5	Z5	X6	Y6	Z6	X7	Y7	Z7	X8	Y8	Z8	X9	Y9	Z9	X10	Y10	Z10	X11	Y11	Z11	X12	Y12	Z12	X13	Y13	Z13	X14	Y14	Z14	X15	Y15	Z15	X16	Y16	Z16	X17	Y17	Z17	X18	Y18	Z18	X19	Y19	Z19	

231	2.300	-367.40045	1430.53760	483.79727	-272.59045	1623.76318	696.15594	-408.72281	1538.08655	659.74835	-235.28465	1499.49292	512.00708	-385.81982	1320.16382	819.32147	-100.53924	1345.47644	600.36145	-326.75162	1221.02795	600.98065	-215.83376	1388.71423	745.23071	-413.87479	982.46814	864.11877	-3.86520	1009.99554	533.78314	-480.23035	803.06409	786.36237	-94.75601	912.86279	347.05353	-364.14474	840.20428	682.26941				-139.00615	935.49194	761.03351	-246.36884	437.31796	807.59039	-242.38835	462.31558	471.66318	-84.41656	184.40790	967.64032	-239.09093	121.81416	476.08936	
232	2.310	-371.46252	1431.88953	474.59924	-276.97235	1624.90173	687.54541	-413.54105	1539.19629	650.45587	-239.61130	1500.55847	505.27649	-390.99243	1321.66846	810.71808	-105.97882	1346.89490	591.88184	-332.17151	1222.86768	591.87567	-220.32559	1389.66565	736.66394	-419.15561	984.15271	854.28534	-9.38533	1012.34955	525.04987	-485.46198	805.03198	777.20331	-99.87208	915.84503	335.98593	-370.05212	841.64252	672.49908	-190.70830	876.91602	498.01016	-146.19565	936.48700	753.08978	-257.50122	434.51993	793.53479	-246.59802	462.05463	465.97900	-90.95266	189.24002	958.53241	-241.51996	120.53043	474.84506	
233	2.320	-376.03635	1433.22156	466.31033	-281.94034	1625.50061	679.31207	-418.57690	1540.55151	641.62640	-243.06703	1501.40857	505.06735	-396.00006	1323.72266	802.05981	-111.06925	1347.90137	583.73645	-337.88608	1225.00073	582.98901	-225.54636	1391.25525	728.25140	-423.79092	985.96954	845.02081	-15.31785	1013.86462	514.85522	-490.62057	807.02234	768.14117	-105.05316	918.87781	325.06223	-375.37778	843.50122	662.76208				-153.05623	938.47400	744.14349	-270.90225	432.43271	779.64398	-249.03290	460.71405	461.49039	-97.96805	193.81403	949.12830	-243.96175	120.22579	473.90405	
234	2.330	-380.37714	1434.46497	457.59180	-288.16440	1627.55042	671.34460	-423.39120	1541.85876	633.03748	-247.68791	1502.63196	497.63034	-400.87811	1325.40808	793.35559	-116.49227	1349.55396	575.20691	-342.68716	1226.74744	574.71912	-230.22385	1391.64099	719.53967	-429.17297	988.00848	836.55933	-20.86556	1015.44702	505.70401	-495.89816	808.96429	758.93842	-110.37923	921.69135	314.87585	-380.75977	845.35272	653.73474	-201.72441	880.04144	481.20422	-159.04666	939.53412	735.41498	-284.91156	430.86057	765.91809	-253.71242	459.48563	457.25925	-105.09006	198.45218	938.95166	-245.58377	119.29333	473.28757	
235	2.340	-384.48236	1435.74072	448.63748	-292.11554	1627.86731	663.15918	-428.04742	1542.94763	624.58270	-252.86327	1504.42603	479.58878	-406.10529	1327.44971	785.08588	-121.55757	1350.25513	567.03271	-347.94772	1228.68274	566.51312	-235.41515	1393.21472	711.53815	-433.96179	989.86023	827.89679	-26.34046	1017.25842	496.16324	-501.59875	811.04706	750.02155	-115.41316	924.16162	304.08511	-386.35577	847.21619	645.45337	-208.19556	882.58258	469.42828	-164.52971	940.82703	726.70526	-297.90155	428.33630	750.77722	-256.93753	457.42404	452.55731	-113.09467	204.72501	927.90503	-246.53661	118.91283	472.72119	
236	2.350	-389.24600	1437.37451	440.43393	-296.24832	1628.83496	654.92352	-433.57950	1543.90735	616.28528	-257.29745	1505.91516	471.57184	-411.34195	1328.94055	776.76282	-126.80527	1351.69470	559.01288	-353.43961	1229.90833	557.99951	-240.20836	1394.04358	703.00958	-439.26370	991.03314	818.84326	-31.71555	1018.05194	486.00769	-507.30496	812.85327	741.02429	-119.88840	927.06604	293.06375	-391.85703	848.44379	637.36926				-170.48865	941.83667	718.00970	-311.06857	426.94052	736.50378	-261.20657	456.04413	447.08942	-122.62169	210.19890	916.32635	-247.09261	118.65884	472.38873	
237	2.360	-394.02838	1438.18921	432.07709	-301.90790	1629.44800	647.28693	-436.48633	1544.59253	607.76068	-262.15063	1507.23523	462.80865	-416.23773	1330.23376	768.66870	-132.04849	1352.21863	550.40509	-358.75635	1231.39551	549.69476	-245.04478	1394.47534	694.74896	-444.74448	992.25232	810.25629	-36.52388	1019.91779	476.36737	-513.05316	814.32245	731.79120	-125.30922	928.96667	282.86115	-397.46500	849.76617	630.13959				-176.01247	942.66913	709.02802	-325.27228	425.69266	721.63354	-264.28745	454.87146	444.08398	-132.20421	215.74982	903.44305	-247.92578	118.31651	472.15173	
238	2.370	-398.28012	1439.45825	423.13412	-307.81818	1630.45117	639.83191	-441.94083	1545.32849	599.57910	-266.12241	1506.83862	467.43839	-420.66833	1331.07263	760.57544	-137.58229	1353.20947	541.93231	-363.78833	1231.96289	541.78192	-250.39478	1395.67871	686.48199	-450.54663	993.44312	801.95685	-41.62075	1020.96399	465.98901	-519.21704	815.60413	722.33008	-129.93102	931.89252	271.91995	-402.98001	850.43170	622.94897	-227.38576	883.91003	442.30704	-179.63690	943.40210	700.65326	-338.56714	424.56219	706.55566	-266.18973	453.50330	440.66965	-144.09937	222.93919	890.82166	-248.21846	117.82927	471.26968	
239	2.380	-403.21857	1440.98730	415.06064	-312.99561	1631.10437	632.23206	-448.49463	1546.87793	591.07837	-271.69135	1508.66650	447.44666	-425.65091	1331.91553	752.88214	-142.70567	1353.53333	533.67865	-369.24857	1232.73291	534.14325	-255.71255	1396.96545	678.44672	-456.50293	994.05121	793.84839	-46.86114	1022.13190	455.54605	-525.48682	817.36572	713.23718	-134.79919	934.39185	260.65564	-408.59561	851.40167	616.45758	-232.78607	880.92334	438.33655	-184.32349	942.78558	691.77222	-353.19290	424.65799	691.35236	-268.30682	453.80356	436.71033	-154.64592	228.29886	877.75446	-248.76620	117.56312	470.96451	
240	2.390	-407.90814	1442.09412	406.66449	-317.48550	1631.82568	624.13812	-451.62503	1546.82434	582.95477	-276.51703	1509.81177	440.52029	-430.35577	1332.74365	744.95013	-148.62714	1354.51965	524.46008	-374.44580	1233.16309	526.28223	-260.24341	1396.87854	670.31232	-462.76749	994.73914	785.04041	-51.97261	1023.48578	445.50327	-531.79919	818.64313	704.07788	-139.51183	936.52631	249.48317	-414.25510	851.99579	610.31012	-239.35750	878.91083	437.13705	-189.06718	943.72925	683.43286	-367.60550	425.13104	676.29504	-269.34909	453.72595	433.14603	-163.73167	233.97000	864.10889	-249.38684	117.91058	470.54651	
241	2.400	-412.53113	1442.97742	398.10400	-322.82388	1631.93555	616.53333	-458.61386	1548.18860	574.54193	-281.62836	1511.56616	431.95258	-434.97382	1333.07898	738.31915	-154.02991	1354.83508	516.35864	-379.99905	1233.44495	519.35193	-265.45081	1397.86218	662.20258	-469.10312	995.59583	776.89679	-55.96714	1024.84241	434.18805	-538.42474	820.03754	694.67126	-144.42371	938.51648	239.31209	-420.33325	852.35388	604.83295	-245.52899	881.99921	422.07724	-192.55853	943.93640	675.56915	-381.27246	425.38116	660.35077	-272.65128	453.90533	430.13480	-176.95369	240.14377	850.41254	-249.89117	118.20103	470.07114	
242	2.410	-417.49823	1443.95862	390.32907	-328.12521	1632.88757	608.91797	-464.09805	1548.66101	566.49261	-286.12640	1511.19470	424.66309	-439.90286	1333.64368	731.18402	-159.82196	1355.68176	508.25406	-385.16006	1233.35010	512.47736	-270.50339	1399.03845	655.33221	-474.65298	996.00226	768.61938	-61.29662	1026.25500	424.12717	-544.91138	821.49475	685.18201	-149.36440	940.62915	228.48868	-425.95511	852.75671	598.77606	-252.37473	878.52747	422.52689	-197.59294	943.90668	667.91077	-396.43631	427.24576	645.21002	-274.89096	453.90082	426.62326	-188.07092	245.53922	836.31146	-251.38147	118.44504	468.78439	
243	2.420	-422.32965	1444.37769	382.29465	-334.58508	1633.23145	601.91022	-469.09656	1549.15649	558.29559	-291.18271	1512.53076	415.98557	-444.49655	1333.96545	723.97272	-165.54019	1355.93079	499.69232	-390.73798	1233.34753	504.96991	-275.70865	1399.84656	647.64081	-480.48392	996.39606	761.00592	-66.66852	1027.98669	414.09903	-551.59943	823.04382	675.47809	-154.06845	942.57690	217.60287	-431.93304	853.15686	593.64166	-257.79047	879.61499	415.71265	-201.59502	944.34332	660.33124	-410.98846	428.60556	629.81787	-278.03519	453.43716	424.20810	-200.12027	250.29718	819.94574	-251.93759	118.02633	467.91034	
